# xmcd
# 
# Track frame offsets:
#     150
#     14380
#     26343
#     40148
#     53905
#     66530
#     78213
#     87923
#     100735
#     115263
#     131915
#     145388
# 
# Disc length: 2114
# 
# Revision: 4
# Processed by: cddbd v1.5.2PL0 Copyright (c) Steve Scherf et al.
# Submitted via: fre:ac v1.0.27
# 
DISCID=a008400c
DTITLE=Leon Redbone - Up a Lazy River
DYEAR=1992
DGENRE=Blues
TTITLE0=Play Gypsy Play
TTITLE1=At The Chocolate Bon Bon Ball
TTITLE2=Lazy River
TTITLE3=When Dixie Stars Are Playing Peek-a-Boo
TTITLE4=Mr. Jelly Roll Baker
TTITLE5=Gotta Shake That Thing
TTITLE6=You're a Heartbreaker
TTITLE7=Bittersweet Waltz
TTITLE8=Goodbye Charlie Blues
TTITLE9=That Old Familiar Blues
TTITLE10=A Dreamer's Holiday
TTITLE11=I'm Going Home
EXTD=1992 Private Music 01005-82095-2
EXTT0=
EXTT1=
EXTT2=
EXTT3=
EXTT4=
EXTT5=
EXTT6=
EXTT7=
EXTT8=
EXTT9=
EXTT10=
EXTT11=
PLAYORDER=
